<?xml version="1.0" encoding="utf-8"?>
<svg viewBox="0 0 770 118" xmlns="http://www.w3.org/2000/svg">
  <defs>
    <style>.cls-1{fill:#fff;}</style>
  </defs>
  <g id="Layer_2" data-name="Layer 2">
    <g id="main_content" data-name="main content">
      <path class="cls-1" d="M55.23,46a50.43,50.43,0,0,0-11.62-5.18Q37.3,38.92,32,37.13a42.17,42.17,0,0,1-8.88-4,7.07,7.07,0,0,1-3.55-6.36q0-3.86,3.7-7.11T33.61,16.4Q40.27,16.4,44,20t3.7,9.77h17A30.62,30.62,0,0,0,62.46,18a27.36,27.36,0,0,0-6.36-9.4,29.38,29.38,0,0,0-9.8-6.21A34.57,34.57,0,0,0,33.61.13,38.78,38.78,0,0,0,20.07,2.35,33.33,33.33,0,0,0,9.85,8.2,25.48,25.48,0,0,0,3.3,16.71,23.87,23.87,0,0,0,1,26.92Q1,35.08,4.6,40a28.43,28.43,0,0,0,8.88,8.1A49.1,49.1,0,0,0,25.1,53q6.28,1.77,11.62,3.63a38.89,38.89,0,0,1,8.88,4.22,7.56,7.56,0,0,1,3.56,6.66,10,10,0,0,1-3.86,7.77q-3.86,3.33-11.7,3.33-7.25,0-11.4-3.92a13.37,13.37,0,0,1-4.13-10.14H.3A31.73,31.73,0,0,0,2.6,76.74a27.59,27.59,0,0,0,6.59,9.62,29.33,29.33,0,0,0,10.43,6.29,40.66,40.66,0,0,0,14,2.23,40.41,40.41,0,0,0,14-2.3A34.73,34.73,0,0,0,58.3,86.51,27.93,27.93,0,0,0,65.18,78a21,21,0,0,0,2.44-9.77q0-8.43-3.55-13.7A28.72,28.72,0,0,0,55.23,46Z" style="fill: rgb(31, 31, 31);"/>
      <path class="cls-1" d="M134.06,35.13a31.32,31.32,0,0,0-10.14-7.25,29.33,29.33,0,0,0-12.14-2.59,25.27,25.27,0,0,0-8,1.18A41.3,41.3,0,0,0,97.71,29a26.27,26.27,0,0,0-5.18,3.7V26.06H77v13h0v78.81H94V88.21a24.05,24.05,0,0,0,4.74,3.41,39.89,39.89,0,0,0,5.57,2.22,24.29,24.29,0,0,0,7.48,1,29.18,29.18,0,0,0,12.14-2.6A31.17,31.17,0,0,0,134.06,85a35.4,35.4,0,0,0,7-11,36.52,36.52,0,0,0,2.55-13.86,36.69,36.69,0,0,0-2.59-14A35.52,35.52,0,0,0,134.06,35.13ZM121.7,73.56a17.16,17.16,0,0,1-24.28,0q-4.89-5-4.89-13.47t4.89-13.48a17.18,17.18,0,0,1,24.28,0q4.88,5,4.88,13.48T121.7,73.56Z" style="fill: rgb(31, 31, 31);"/>
      <path class="cls-1" d="M199,26.06v6.63h0a32.53,32.53,0,0,0-5.18-3.7,41.3,41.3,0,0,0-6.07-2.52,25.22,25.22,0,0,0-8-1.18,29.4,29.4,0,0,0-12.14,2.59,31.28,31.28,0,0,0-10.13,7.25,35.4,35.4,0,0,0-7,11,36.46,36.46,0,0,0-2.55,14A36.58,36.58,0,0,0,150.49,74a35.22,35.22,0,0,0,7,11,31.17,31.17,0,0,0,10.14,7.25,29.25,29.25,0,0,0,12.14,2.6,26.39,26.39,0,0,0,8-1.11,29.07,29.07,0,0,0,6.07-2.6,32.09,32.09,0,0,0,5.18-3.7h0v6.65h15.55V26Zm-4.88,47.5a17.16,17.16,0,0,1-24.28,0q-4.89-5-4.89-13.47t4.89-13.48a17.18,17.18,0,0,1,24.28,0q4.88,5,4.88,13.48T194.09,73.56Z" style="fill: rgb(31, 31, 31);"/>
      <path class="cls-1" d="M260.3,25.44a14.3,14.3,0,0,0-2.07-.14,18.06,18.06,0,0,0-6.93,1.25,21.78,21.78,0,0,0-5.1,2.89,21.49,21.49,0,0,0-4.3,4V26.06H226.36v13h0V94.13h17V57.86q0-6.66,3.93-10.73a13.45,13.45,0,0,1,10.14-4.07,19.85,19.85,0,0,1,2.44.15c.74.1,1.36.2,1.85.29l1.63.3V26l-1.48-.3Z" style="fill: rgb(31, 31, 31);"/>
      <polygon class="cls-1" points="329.54 26.04 311.04 26.04 297.71 47.5 284.39 26.04 265.89 26.04 287.35 59.35 264.41 94.14 282.91 94.14 297.71 71.19 312.52 94.14 331.02 94.14 308.08 59.35 329.54 26.04" style="fill: rgb(31, 31, 31);"/>
    </g>
  </g>
  <path class="cls-1" d="M400.2,60.61h-13V93.92H369.79V2.67H406a32,32,0,0,1,12.09,2.25,29.06,29.06,0,0,1,16,15.2,26.09,26.09,0,0,1,2.32,10.8q0,7.66-3.05,12.74a32.51,32.51,0,0,1-6.8,8.26,32.06,32.06,0,0,1-9.71,5.79l21.73,36.21H419ZM387.17,44H406a12.73,12.73,0,0,0,9.27-3.69,11.76,11.76,0,0,0,0-17.24A12.73,12.73,0,0,0,406,19.33H387.17Z" style="fill: rgb(31, 31, 31);"/>
  <path class="cls-1" d="M504.84,73.65a30.16,30.16,0,0,1-4,7.53,31.68,31.68,0,0,1-6.52,6.73,34.76,34.76,0,0,1-8.69,4.86,28.92,28.92,0,0,1-10.5,1.88A31,31,0,0,1,462.33,92a34.29,34.29,0,0,1-10.58-7.32,35.34,35.34,0,0,1-7.24-10.79,34.09,34.09,0,0,1,0-26.5,35.5,35.5,0,0,1,7.24-10.8,34.6,34.6,0,0,1,10.58-7.31A31.36,31.36,0,0,1,497.6,36a33.29,33.29,0,0,1,6.88,10.8A36.72,36.72,0,0,1,507,60.61a18.08,18.08,0,0,1-.14,2.24c-.1.73-.2,1.43-.29,2.1s-.2,1.5-.29,2.18H459.94a15.48,15.48,0,0,0,4.92,8.25q3.76,3.34,10.29,3.34a18.08,18.08,0,0,0,5.57-.73,16.3,16.3,0,0,0,3.84-1.74,12.86,12.86,0,0,0,2.9-2.6ZM475.15,42.5a15.19,15.19,0,0,0-10.65,3.77,17,17,0,0,0-5.29,9.27h31.87a17,17,0,0,0-5.29-9.27A15.18,15.18,0,0,0,475.15,42.5Z" style="fill: rgb(31, 31, 31);"/>
  <path class="cls-1" d="M544.84,26.57a27.13,27.13,0,0,1,10.43,2A24.44,24.44,0,0,1,569,42.21a27.2,27.2,0,0,1,2,10.43V93.92H558.61l-2.9-6.51A32.52,32.52,0,0,1,550.64,91a28.5,28.5,0,0,1-5.94,2.53,26,26,0,0,1-7.82,1.09q-10.86,0-16.66-5.29a17.51,17.51,0,0,1-5.79-13.54,20.92,20.92,0,0,1,2-9,17.35,17.35,0,0,1,6.59-7.1A37.69,37.69,0,0,1,535.21,55a91.18,91.18,0,0,1,19-1.66q0-5.5-3-8.55a10.52,10.52,0,0,0-7.89-3,10.35,10.35,0,0,0-5.29,1.16A13.16,13.16,0,0,0,535,45.4,8.51,8.51,0,0,0,533.26,49H516.6a25.57,25.57,0,0,1,2.68-8.69,23.18,23.18,0,0,1,5.72-7.1,28.37,28.37,0,0,1,8.62-4.85A32.69,32.69,0,0,1,544.84,26.57Zm-5.07,55a14.51,14.51,0,0,0,10.51-3.84,13.16,13.16,0,0,0,4-9.92V65a85.13,85.13,0,0,0-11.88.66,24.48,24.48,0,0,0-7,1.88,7,7,0,0,0-3.41,3,8.61,8.61,0,0,0-.87,3.91,6.65,6.65,0,0,0,2.47,5A8.85,8.85,0,0,0,539.77,81.61Z" style="fill: rgb(31, 31, 31);"/>
  <path class="cls-1" d="M611.65,94.65a28.66,28.66,0,0,1-11.88-2.54A30.39,30.39,0,0,1,589.85,85,34.89,34.89,0,0,1,583,74.23a35.85,35.85,0,0,1-2.54-13.62A35.82,35.82,0,0,1,583,47a34.77,34.77,0,0,1,6.81-10.79,30.72,30.72,0,0,1,9.92-7.1,28.81,28.81,0,0,1,11.88-2.53,22.25,22.25,0,0,1,7.24,1.09,44.21,44.21,0,0,1,5.5,2.24A28.47,28.47,0,0,1,629,33.09V2.67h16.66V93.92H633.37l-2.89-6.51A32.52,32.52,0,0,1,625.41,91a28.73,28.73,0,0,1-5.94,2.53A26,26,0,0,1,611.65,94.65Zm18.83-34q0-8.26-4.78-13.18a16.78,16.78,0,0,0-23.76,0q-4.77,4.92-4.78,13.18t4.78,13.18a16.78,16.78,0,0,0,23.76,0Q630.47,68.87,630.48,60.61Z" style="fill: rgb(31, 31, 31);"/>
  <path class="cls-1" d="M719,73.65a29.52,29.52,0,0,1-4,7.53,31.68,31.68,0,0,1-6.52,6.73,34.58,34.58,0,0,1-8.69,4.86,28.85,28.85,0,0,1-10.5,1.88A31.08,31.08,0,0,1,676.49,92a34.13,34.13,0,0,1-10.57-7.32,35.16,35.16,0,0,1-7.24-10.79,34.09,34.09,0,0,1,0-26.5,35.32,35.32,0,0,1,7.24-10.8,34.44,34.44,0,0,1,10.57-7.31A31.36,31.36,0,0,1,711.76,36a33.12,33.12,0,0,1,6.88,10.8,36.72,36.72,0,0,1,2.54,13.83,16.31,16.31,0,0,1-.15,2.24c-.09.73-.19,1.43-.29,2.1s-.19,1.5-.29,2.18H674.1A15.43,15.43,0,0,0,679,75.38q3.76,3.34,10.28,3.34a18.2,18.2,0,0,0,5.58-.73,16.68,16.68,0,0,0,3.84-1.74,12.8,12.8,0,0,0,2.89-2.6ZM689.31,42.5a15.22,15.22,0,0,0-10.65,3.77,17,17,0,0,0-5.28,9.27h31.86A17,17,0,0,0,700,46.27,15.2,15.2,0,0,0,689.31,42.5Z" style="fill: rgb(31, 31, 31);"/>
  <path class="cls-1" d="M764.63,26.57a12.11,12.11,0,0,1,2,.15c.58.09,1.11.19,1.59.28l1.45.29V44.68c-.48-.1-1-.2-1.59-.29s-1.09-.2-1.81-.29a17.6,17.6,0,0,0-2.39-.15,13.17,13.17,0,0,0-9.93,4q-3.83,4-3.83,10.5V93.92H733.49V27.29H745.8l2.9,7.25a20.17,20.17,0,0,1,4.2-3.91,20.88,20.88,0,0,1,5-2.83A17.4,17.4,0,0,1,764.63,26.57Z" style="fill: rgb(31, 31, 31);"/>
</svg>