<?xml version="1.0" encoding="utf-8"?>
<svg xmlns="http://www.w3.org/2000/svg" viewBox="80.9675 241.5785 960 212" width="960px" height="212px"><g transform="matrix(0.9999999999999999, 0, 0, 0.9999999999999999, 80.96752929687499, -87.42146301269531)" id="object-0"><path d="M0 397L22.8 403.7C45.7 410.3 91.3 423.7 137 419.7C182.7 415.7 228.3 394.3 274 395C319.7 395.7 365.3 418.3 411.2 424.7C457 431 503 421 548.8 418.8C594.7 416.7 640.3 422.3 686 416.5C731.7 410.7 777.3 393.3 823 376.8C868.7 360.3 914.3 344.7 937.2 336.8L960 329L960 541L937.2 541C914.3 541 868.7 541 823 541C777.3 541 731.7 541 686 541C640.3 541 594.7 541 548.8 541C503 541 457 541 411.2 541C365.3 541 319.7 541 274 541C228.3 541 182.7 541 137 541C91.3 541 45.7 541 22.8 541L0 541Z" fill="#3e3e3e"/><path d="M0 361L22.8 359.7C45.7 358.3 91.3 355.7 137 370.2C182.7 384.7 228.3 416.3 274 423.8C319.7 431.3 365.3 414.7 411.2 415.3C457 416 503 434 548.8 427.5C594.7 421 640.3 390 686 378.3C731.7 366.7 777.3 374.3 823 382.8C868.7 391.3 914.3 400.7 937.2 405.3L960 410L960 541L937.2 541C914.3 541 868.7 541 823 541C777.3 541 731.7 541 686 541C640.3 541 594.7 541 548.8 541C503 541 457 541 411.2 541C365.3 541 319.7 541 274 541C228.3 541 182.7 541 137 541C91.3 541 45.7 541 22.8 541L0 541Z" fill="#3a3a3a"/><path d="M0 422L22.8 419.2C45.7 416.3 91.3 410.7 137 414C182.7 417.3 228.3 429.7 274 432.7C319.7 435.7 365.3 429.3 411.2 426.8C457 424.3 503 425.7 548.8 435C594.7 444.3 640.3 461.7 686 469.8C731.7 478 777.3 477 823 470.7C868.7 464.3 914.3 452.7 937.2 446.8L960 441L960 541L937.2 541C914.3 541 868.7 541 823 541C777.3 541 731.7 541 686 541C640.3 541 594.7 541 548.8 541C503 541 457 541 411.2 541C365.3 541 319.7 541 274 541C228.3 541 182.7 541 137 541C91.3 541 45.7 541 22.8 541L0 541Z" fill="#363636"/><path d="M0 460L22.8 463.7C45.7 467.3 91.3 474.7 137 479.8C182.7 485 228.3 488 274 490.5C319.7 493 365.3 495 411.2 492.3C457 489.7 503 482.3 548.8 482.2C594.7 482 640.3 489 686 488.5C731.7 488 777.3 480 823 471.2C868.7 462.3 914.3 452.7 937.2 447.8L960 443L960 541L937.2 541C914.3 541 868.7 541 823 541C777.3 541 731.7 541 686 541C640.3 541 594.7 541 548.8 541C503 541 457 541 411.2 541C365.3 541 319.7 541 274 541C228.3 541 182.7 541 137 541C91.3 541 45.7 541 22.8 541L0 541Z" fill="#333333"/></g></svg>